<svg width="32" height="32" viewBox="0 0 32 32" fill="none" xmlns="http://www.w3.org/2000/svg">
    <path d="M8.99844 24.3984C8.61184 24.785 7.98504 24.785 7.59844 24.3984C7.21184 24.0118 7.21184 23.385 7.59844 22.9984L14.5984 15.9984L7.59844 8.99844C7.21184 8.61184 7.21184 7.98504 7.59844 7.59844C7.98504 7.21184 8.61184 7.21184 8.99844 7.59844L15.9984 14.5984L22.9984 7.59844C23.385 7.21184 24.0118 7.21184 24.3984 7.59844C24.785 7.98504 24.785 8.61184 24.3984 8.99844L17.3984 15.9984L24.3984 22.9984C24.785 23.385 24.785 24.0118 24.3984 24.3984C24.0118 24.785 23.385 24.785 22.9984 24.3984L15.9984 17.3984L8.99844 24.3984Z"
          fill="#FFFFFF"/>
</svg>
